# xmcd CD database file
#
# Track frame offsets:
#	150
#	18006
#	41261
#	66542
#	86496
#	104651
#	132181
#	138636
#	143067
#	156497
#	169776
#	184556
#
# Disc length: 2629 seconds
#
# Revision: 0
# Processed by: cddbd v1.5.2PL0 Copyright (c) Steve Scherf et al.
# Submitted via: CDex 1.51
#
DISCID=a40a430c
DTITLE=Errol Garner - One World Concert
DYEAR=1900
DGENRE=Jazz
TTITLE0=Errol Garner - 01.The way you look tonight
TTITLE1=Errol Garner - 02.Hapiness is a thing called Joe
TTITLE2=Errol Garner - 03.Sweet and lovely
TTITLE3=Errol Garner - 04.Mack the knife
TTITLE4=Errol Garner - 05.Lover come back to me
TTITLE5=Errol Garner - 06.Moving blues
TTITLE6=Errol Garner - 07.Dancing tambourine
TTITLE7=Errol Garner - 08.Thanks for the memory
TTITLE8=Errol Garner - 09.Confessing
TTITLE9=Errol Garner - 10.I may be wrong
TTITLE10=Errol Garner - 11.Summertime
TTITLE11=Errol Garner - 12.Love for sale
EXTD=
EXTT0=
EXTT1=
EXTT2=
EXTT3=
EXTT4=
EXTT5=
EXTT6=
EXTT7=
EXTT8=
EXTT9=
EXTT10=
EXTT11=
PLAYORDER=
